# xmcd
#
# Track frame offsets:
#	150
#	12750
#	36127
#	56067
#	88509
#	123690
#	193321
#	228017
#	262951
#
# Disc length: 4477 seconds
#
# Revision: 0
# Processed by: cddbd v1.5.2PL0 Copyright (c) Steve Scherf et al.
# Submitted via: EZCDAudioConverter 7.0.4.1
#
DISCID=71117b09
DTITLE=Fleetwood Mac - Love That Burns the Blues Years [CD 2 Live)
DYEAR=2017
DGENRE=Blues Rock
TTITLE0=Oh Well
TTITLE1=Jumping at Shadows
TTITLE2=Stranger Blues
TTITLE3=Black magic Woman
TTITLE4=Rattlesnake Shake
TTITLE5=The Green manalishi (With the two Prong Crown)
TTITLE6=Tqwist and Shout
TTITLE7=Coming Your way
TTITLE8=Underway
EXTD=
EXTT0=
EXTT1=
EXTT2=
EXTT3=
EXTT4=
EXTT5=
EXTT6=
EXTT7=
EXTT8=
PLAYORDER=
